<?xml version="1.0" encoding="iso-8859-1"?>
<!-- Generator: Adobe Illustrator 19.0.0, SVG Export Plug-In . SVG Version: 6.00 Build 0)  -->
<svg version="1.1" id="Layer_1" xmlns="http://www.w3.org/2000/svg" xmlns:xlink="http://www.w3.org/1999/xlink" x="0px" y="0px"
	 viewBox="0 0 512 512" style="enable-background:new 0 0 512 512;" xml:space="preserve">
<g>
	<polygon style="fill:#FF9811;" points="311.642,0 200.358,0 213.658,73.143 298.342,73.143 	"/>
	<polygon style="fill:#FF9811;" points="191.084,361.668 255.999,426.583 320.916,361.668 293.094,109.714 218.906,109.714 	"/>
</g>
<g>
	<polygon style="fill:#FF5023;" points="256,0 256,73.143 298.342,73.143 311.642,0 	"/>
	<polygon style="fill:#FF5023;" points="255.999,426.583 320.916,361.668 293.094,109.714 256,109.714 	"/>
</g>
<polygon style="fill:#78B9EB;" points="512,73.143 377.905,36.571 256,402.286 134.095,36.571 0,73.143 0,512 512,512 "/>
<polygon style="fill:#3C5D76;" points="377.905,36.571 256,402.286 256,512 512,512 512,73.143 "/>
<rect x="365.714" y="219.429" style="fill:#78B9EB;" width="109.714" height="36.571"/>
<g>
</g>
<g>
</g>
<g>
</g>
<g>
</g>
<g>
</g>
<g>
</g>
<g>
</g>
<g>
</g>
<g>
</g>
<g>
</g>
<g>
</g>
<g>
</g>
<g>
</g>
<g>
</g>
<g>
</g>
</svg>
